<svg width="118" height="30" viewBox="0 0 118 30" fill="none" xmlns="http://www.w3.org/2000/svg">
<g clip-path="url(#clip0_307_6230)">
<path d="M27.0238 5.78897C26.6765 5.44031 26.2638 5.16367 25.8093 4.9749C25.3548 4.78614 24.8675 4.68897 24.3754 4.68897C23.8833 4.68897 23.396 4.78614 22.9415 4.9749C22.487 5.16367 22.0743 5.44031 21.727 5.78897C21.4879 6.02072 21.2828 6.28504 21.1176 6.57412L17.8129 5.67178C17.821 4.92704 17.6071 4.19676 17.1985 3.57403C16.79 2.95131 16.2053 2.46434 15.5189 2.17521C14.8325 1.88608 14.0756 1.80788 13.3446 1.95058C12.6136 2.09328 11.9417 2.45042 11.4145 2.97647C10.8498 3.53977 10.4794 4.26844 10.3572 5.05662C10.235 5.84479 10.3672 6.65141 10.7348 7.35928L6.76211 10.9335C6.04032 10.4565 5.1758 10.2438 4.31508 10.3313C3.45436 10.4189 2.6504 10.8014 2.03945 11.414C1.6908 11.7613 1.41415 12.174 1.22539 12.6285C1.03662 13.083 0.939453 13.5703 0.939453 14.0624C0.939453 14.5545 1.03662 15.0418 1.22539 15.4963C1.41415 15.9508 1.6908 16.3635 2.03945 16.7108C2.38547 17.0614 2.79793 17.3393 3.25268 17.5285C3.70744 17.7176 4.19537 17.8141 4.68789 17.8124C5.55437 17.8135 6.39467 17.5155 7.0668 16.9687L15.2699 22.9804C14.9979 23.6618 14.9317 24.408 15.0796 25.1266C15.2275 25.8453 15.583 26.5047 16.102 27.0233C16.4493 27.372 16.862 27.6486 17.3165 27.8374C17.771 28.0262 18.2583 28.1233 18.7504 28.1233C19.2425 28.1233 19.7298 28.0262 20.1843 27.8374C20.6388 27.6486 21.0515 27.372 21.3988 27.0233C21.7475 26.676 22.0241 26.2633 22.2129 25.8088C22.4017 25.3543 22.4988 24.867 22.4988 24.3749C22.4988 23.8828 22.4017 23.3955 22.2129 22.941C22.0241 22.4865 21.7475 22.0738 21.3988 21.7265C21.2266 21.5573 21.0426 21.4007 20.848 21.2577L24.0473 12.1757H24.3754C24.8679 12.1774 25.3558 12.0809 25.8106 11.8917C26.2654 11.7026 26.6778 11.4246 27.0238 11.0741C27.7244 10.3731 28.118 9.42261 28.118 8.43154C28.118 7.44047 27.7244 6.48997 27.0238 5.78897ZM19.0785 20.6366C18.1026 20.5545 17.1328 20.8526 16.3715 21.4687L8.16836 15.4569C8.36702 14.9546 8.45619 14.4156 8.42991 13.876C8.40364 13.3365 8.26254 12.8087 8.01602 12.328L11.9887 8.75381C12.6051 9.15777 13.3259 9.37358 14.0629 9.3749C14.5554 9.37664 15.0433 9.28011 15.4981 9.09097C15.9529 8.90182 16.3653 8.62385 16.7113 8.27334C16.9504 8.04159 17.1555 7.77727 17.3207 7.48818L20.6254 8.39053C20.6173 8.89091 20.7108 9.38774 20.9001 9.85099C21.0895 10.3142 21.3707 10.7343 21.727 11.0858C21.8992 11.255 22.0832 11.4116 22.2777 11.5546L19.0785 20.6366Z" fill="#3500CC"/>
</g>
<path d="M41.8466 22.429H40L45.3409 7.8835H47.1591L52.5 22.429H50.6534L46.3068 10.1846H46.1932L41.8466 22.429ZM42.5284 16.7471H49.9716V18.3096H42.5284V16.7471Z" fill="#353E45"/>
<path d="M61.4134 17.9687V11.5199H63.0895V22.429H61.4134V20.5824H61.2997C61.044 21.1363 60.6463 21.6075 60.1065 21.9957C59.5668 22.3792 58.8849 22.571 58.0611 22.571C57.3793 22.571 56.7732 22.4219 56.2429 22.1236C55.7126 21.8205 55.2959 21.366 54.9929 20.7599C54.6899 20.1491 54.5384 19.3797 54.5384 18.4517V11.5199H56.2145V18.338C56.2145 19.1335 56.437 19.768 56.8821 20.2415C57.3319 20.7149 57.9048 20.9517 58.6009 20.9517C59.0175 20.9517 59.4413 20.8451 59.8722 20.6321C60.3078 20.419 60.6723 20.0923 60.9659 19.652C61.2642 19.2116 61.4134 18.6505 61.4134 17.9687Z" fill="#353E45"/>
<path d="M67.4094 11.5199L70.0231 15.9801L72.6367 11.5199H74.5685L71.0458 16.9744L74.5685 22.429H72.6367L70.0231 18.196L67.4094 22.429H65.4776L68.9435 16.9744L65.4776 11.5199H67.4094Z" fill="#353E45"/>
<path d="M76.9602 22.429V11.5199H78.6364V22.429H76.9602ZM77.8125 9.70168C77.4858 9.70168 77.2041 9.59041 76.9673 9.36788C76.7353 9.14534 76.6193 8.87782 76.6193 8.56532C76.6193 8.25282 76.7353 7.9853 76.9673 7.76276C77.2041 7.54022 77.4858 7.42896 77.8125 7.42896C78.1392 7.42896 78.4186 7.54022 78.6506 7.76276C78.8873 7.9853 79.0057 8.25282 79.0057 8.56532C79.0057 8.87782 78.8873 9.14534 78.6506 9.36788C78.4186 9.59041 78.1392 9.70168 77.8125 9.70168Z" fill="#353E45"/>
<path d="M83.3825 7.8835V22.429H81.7063V7.8835H83.3825Z" fill="#353E45"/>
<path d="M86.4524 22.429V11.5199H88.1286V22.429H86.4524ZM87.3047 9.70168C86.978 9.70168 86.6963 9.59041 86.4595 9.36788C86.2275 9.14534 86.1115 8.87782 86.1115 8.56532C86.1115 8.25282 86.2275 7.9853 86.4595 7.76276C86.6963 7.54022 86.978 7.42896 87.3047 7.42896C87.6314 7.42896 87.9107 7.54022 88.1428 7.76276C88.3795 7.9853 88.4979 8.25282 88.4979 8.56532C88.4979 8.87782 88.3795 9.14534 88.1428 9.36788C87.9107 9.59041 87.6314 9.70168 87.3047 9.70168Z" fill="#353E45"/>
<path d="M98.0735 17.9687V11.5199H99.7496V22.429H98.0735V20.5824H97.9599C97.7042 21.1363 97.3065 21.6075 96.7667 21.9957C96.2269 22.3792 95.5451 22.571 94.7212 22.571C94.0394 22.571 93.4334 22.4219 92.9031 22.1236C92.3728 21.8205 91.9561 21.366 91.6531 20.7599C91.35 20.1491 91.1985 19.3797 91.1985 18.4517V11.5199H92.8746V18.338C92.8746 19.1335 93.0972 19.768 93.5423 20.2415C93.9921 20.7149 94.565 20.9517 95.261 20.9517C95.6777 20.9517 96.1014 20.8451 96.5323 20.6321C96.9679 20.419 97.3325 20.0923 97.6261 19.652C97.9244 19.2116 98.0735 18.6505 98.0735 17.9687Z" fill="#353E45"/>
<path d="M102.82 22.429V11.5199H104.439V13.2244H104.581C104.808 12.642 105.175 12.1898 105.682 11.8679C106.188 11.5412 106.797 11.3778 107.507 11.3778C108.227 11.3778 108.826 11.5412 109.304 11.8679C109.787 12.1898 110.163 12.642 110.433 13.2244H110.547C110.826 12.661 111.245 12.2135 111.804 11.8821C112.363 11.5459 113.033 11.3778 113.814 11.3778C114.789 11.3778 115.587 11.6832 116.207 12.294C116.828 12.9001 117.138 13.8447 117.138 15.1278V22.429H115.462V15.1278C115.462 14.3229 115.241 13.7476 114.801 13.402C114.361 13.0563 113.842 12.8835 113.246 12.8835C112.479 12.8835 111.884 13.1155 111.463 13.5795C111.042 14.0388 110.831 14.6212 110.831 15.3267V22.429H109.126V14.9574C109.126 14.3371 108.925 13.8376 108.523 13.4588C108.12 13.0753 107.602 12.8835 106.967 12.8835C106.532 12.8835 106.125 12.9995 105.746 13.2315C105.372 13.4635 105.069 13.7855 104.837 14.1974C104.609 14.6046 104.496 15.0757 104.496 15.6108V22.429H102.82Z" fill="#353E45"/>
<defs>
<clipPath id="clip0_307_6230">
<rect width="30" height="30" fill="white"/>
</clipPath>
</defs>
</svg>
